<svg xmlns="http://www.w3.org/2000/svg" width="46" height="46" viewBox="0 0 46 46" xmlns:xlink="http://www.w3.org/1999/xlink">
    <defs>
        <rect id="a" width="46" height="46" rx="2"/>
    </defs>
    <g fill="none" fill-rule="evenodd">
        <mask id="b" fill="white">
            <use xlink:href="#a"/>
        </mask>
        <use fill="#1CBF43" xlink:href="#a"/>
        <path fill="#FFFFFF" d="M23.5741505,11.5 C16.9064967,11.5 11.5,17.0427832 11.5,23.8815535 C11.5,29.3511762 14.9595463,33.9916459 19.7583996,35.6284682 C20.3620788,35.7422735 20.5823707,35.3602128 20.5823707,35.0321516 C20.5823707,34.7383481 20.571611,33.9597107 20.5659479,32.9261727 C17.2072037,33.6746168 16.4981921,31.2667054 16.4981921,31.2667054 C15.9494442,29.8365907 15.1577524,29.4556913 15.1577524,29.4556913 C14.0613894,28.6875054 15.2404326,28.7031827 15.2404326,28.7031827 C16.4523215,28.7908592 17.0899789,29.9788473 17.0899789,29.9788473 C18.1670876,31.871151 19.9163982,31.3247693 20.6044566,31.0077402 C20.7143194,30.2076192 21.0257861,29.6618182 21.3712311,29.3523375 C18.6897854,29.0399535 15.8707281,27.9779641 15.8707281,23.23356 C15.8707281,21.8818316 16.3413261,20.7768749 17.1137636,19.9111416 C16.9897432,19.598177 16.5752093,18.3393509 17.232121,16.6345938 C17.232121,16.6345938 18.2458037,16.3018874 20.5523567,17.9038714 C21.5156384,17.629229 22.5485754,17.4921981 23.5758495,17.4869723 C24.6008582,17.4921981 25.6343616,17.629229 26.5987759,17.9038714 C28.9041963,16.3018874 29.9161801,16.6345938 29.9161801,16.6345938 C30.5747907,18.3393509 30.1602568,19.598177 30.0362364,19.9111416 C30.8098065,20.7768749 31.2770067,21.8818316 31.2770067,23.23356 C31.2770067,27.9895769 28.4539852,29.0364696 25.764045,29.3430472 C26.1978333,29.7251079 26.5840521,30.4805197 26.5840521,31.6354114 C26.5840521,33.2908142 26.5687619,34.6262847 26.5687619,35.0321516 C26.5687619,35.363116 26.7862223,35.7480799 27.3995287,35.6273069 C32.1932853,33.9870007 35.65,29.3494343 35.65,23.8815535 C35.65,17.0427832 30.242937,11.5 23.5741505,11.5" mask="url(#b)"/>
    </g>
</svg>
